<svg width="291" height="337" viewBox="0 0 291 337" fill="none" xmlns="http://www.w3.org/2000/svg">
<path d="M24.336 70.752H92.736C112.608 70.752 130.128 74.688 145.296 82.56C160.464 90.432 172.32 101.616 180.864 116.112C189.504 130.512 193.824 147.696 193.824 167.664C193.824 187.344 189.504 204.432 180.864 218.928C172.32 233.328 160.464 244.464 145.296 252.336C130.128 260.112 112.608 264 92.736 264H24.336V70.752ZM70.416 113.088V221.952H92.736C103.2 221.952 112.224 219.6 119.808 214.896C127.488 210.096 133.392 203.616 137.52 195.456C141.744 187.296 143.856 178.032 143.856 167.664C143.856 156.912 141.744 147.456 137.52 139.296C133.392 131.136 127.488 124.752 119.808 120.144C112.224 115.44 103.2 113.088 92.736 113.088H70.416Z" fill="black"/>
<circle cx="243.5" cy="216.5" r="47.5" fill="url(#paint0_linear_2_7)"/>
<defs>
<linearGradient id="paint0_linear_2_7" x1="243.5" y1="169" x2="243.5" y2="264" gradientUnits="userSpaceOnUse">
<stop stop-color="#22D1EE"/>
<stop offset="1" stop-color="#3D5AF1"/>
</linearGradient>
</defs>
</svg>
